<svg
  xmlns="http://www.w3.org/2000/svg"
  viewBox="0 0 200 260"
  fill="none"
  stroke="none"
>
  <!-- White circle background -->
  <circle cx="100" cy="130" r="130" fill="white" />

  <!-- Group rig shapes and center them -->
  <g transform="translate(0, 15)">
    <!-- Outer rig shape: dark blue -->
    <path
      d="M55 25 C45 15, 30 15, 25 35 L40 190 C42 195, 48 200, 55 200 L145 200 C152 200, 158 195, 160 190 L175 35 C170 15, 155 15, 145 25 Z"
      fill="#0D47A1"
    />

    <!-- Shoulder yoke/extrusions: white -->
    <path
      d="M55 25 C75 80, 125 80, 145 25"
      fill="#FFFFFF"
    />

    <!-- Lower container flap: medium blue -->
    <path
      d="M65 155 C85 170, 115 170, 135 155"
      fill="#1976D2"
    />

    <!-- Bottom tab: black -->
    <path
      d="
        M120 200
        L140 200
        L140 203
        Q140 206 135 206
        L125 206
        Q120 206 120 203
        L120 203
        Z
      "
      fill="#000000"
    />
  </g>
</svg>
